<?xml version="1.0" encoding="utf-8"?>
<!-- Generator: Adobe Illustrator 19.0.0, SVG Export Plug-In . SVG Version: 6.00 Build 0)  -->
<svg version="1.1" id="图层_1" xmlns="http://www.w3.org/2000/svg" xmlns:xlink="http://www.w3.org/1999/xlink" x="0px" y="0px"
	 viewBox="0 0 30 30" style="enable-background:new 0 0 30 30;" xml:space="preserve">
<g id="XMLID_4_">
	<g>
		<g>
			<defs>
				<path id="SVGID_1_" d="M29.8,8.1c0,0.5-0.2,0.9-0.5,1.3L12.8,25.8c-0.4,0.4-0.8,0.5-1.3,0.5s-0.9-0.2-1.3-0.5l-9.5-9.5
					c-0.4-0.4-0.5-0.8-0.5-1.3s0.2-0.9,0.5-1.3l2.6-2.6c0.4-0.4,0.8-0.5,1.3-0.5s0.9,0.2,1.3,0.5l5.6,5.7L24.1,4.2
					c0.4-0.4,0.8-0.5,1.3-0.5s0.9,0.2,1.3,0.5l2.6,2.6C29.7,7.1,29.8,7.6,29.8,8.1z"/>
			</defs>
			<use xlink:href="#SVGID_1_"  style="overflow:visible;"/>
			<clipPath id="SVGID_2_">
				<use xlink:href="#SVGID_1_"  style="overflow:visible;"/>
			</clipPath>
		</g>
	</g>
</g>
</svg>
