<?xml version="1.0" encoding="utf-8"?>
<!-- Generator: Adobe Illustrator 19.0.0, SVG Export Plug-In . SVG Version: 6.00 Build 0)  -->
<svg version="1.1" id="图层_1" xmlns="http://www.w3.org/2000/svg" xmlns:xlink="http://www.w3.org/1999/xlink" x="0px" y="0px"
	 viewBox="0 0 30 30" style="enable-background:new 0 0 30 30;" xml:space="preserve">
<style type="text/css">
	.st0{fill-rule:evenodd;clip-rule:evenodd;}
</style>
<g>
	<path class="st0" d="M15,0.2C6.9,0.2,0.2,6.9,0.2,15S6.9,29.8,15,29.8S29.8,23.1,29.8,15S23.1,0.2,15,0.2L15,0.2L15,0.2z
		 M21.3,19.2c0.6,0.6,0.6,1.4,0,2s-1.4,0.6-2,0L15.2,17l-4.4,4.4c-0.6,0.6-1.6,0.6-2.2,0s-0.6-1.6,0-2.2l4.4-4.4l-4.2-4.2
		c-0.6-0.6-0.6-1.4,0-2c0.6-0.6,1.4-0.6,2,0l4.2,4.2l4.4-4.4c0.6-0.6,1.6-0.6,2.2,0s0.6,1.6,0,2.2L17.2,15L21.3,19.2L21.3,19.2
		L21.3,19.2z"/>
</g>
</svg>
