<?xml version="1.0" encoding="utf-8"?>
<!-- Generator: Adobe Illustrator 19.0.0, SVG Export Plug-In . SVG Version: 6.00 Build 0)  -->
<svg version="1.1" id="图层_1" xmlns="http://www.w3.org/2000/svg" xmlns:xlink="http://www.w3.org/1999/xlink" x="0px" y="0px"
	 viewBox="-234 239 30 24" style="enable-background:new -234 239 30 24;" xml:space="preserve">
<title>等待支付</title>
<desc>Created with Sketch.</desc>
<g id="_x30_-BASIC">
	<g id="公共组件及说明" transform="translate(-1016.000000, -3839.000000)">
		<g id="等待支付" transform="translate(1016.000000, 3839.000000)">
			<path id="Fill-1" d="M-219,240c4.9,0,9.1,3.4,10.3,8l0.7,0.2c-1.2-5-5.6-8.8-10.9-8.8c-3.2,0-6.1,1.4-8.2,3.6l0.6,0.2
				C-224.6,241.2-222,240-219,240 M-204.9,249.7l-25.8-7c-0.6-0.2-1.3,0.2-1.5,0.8l-1.8,7c-0.2,0.6,0.2,1.3,0.8,1.5l25.8,7
				c0.6,0.2,1.3-0.2,1.5-0.8l1.8-7C-203.9,250.5-204.3,249.9-204.9,249.7 M-204.7,251.3l-1.7,6.4c-0.1,0.5-0.6,0.8-1.1,0.6
				l-25.2-6.8c-0.5-0.1-0.8-0.6-0.6-1.1l1.7-6.4c0.1-0.5,0.6-0.8,1.1-0.6l25.2,6.8C-204.9,250.3-204.6,250.8-204.7,251.3
				 M-219,261.6c-4.9,0-9.1-3.4-10.3-8l-0.7-0.2c1.2,5,5.6,8.8,10.9,8.8c3.2,0,6.1-1.4,8.2-3.6l-0.6-0.2
				C-213.4,260.4-216.1,261.6-219,261.6"/>
			<path id="Fill-3" d="M-226.4,247.6c0-0.1-0.2-0.4-0.3-0.8l0.4-0.1c0.2,0.3,0.3,0.5,0.4,0.7L-226.4,247.6z M-226.7,245.5l0.5,0.1
				c-0.1,0.2-0.3,0.3-0.4,0.5l2,0.5l-0.1,0.4l-2.2-0.6c-0.2,0.2-0.4,0.3-0.6,0.5c-0.1-0.2-0.3-0.3-0.3-0.4
				C-227.4,246.3-227,246-226.7,245.5L-226.7,245.5z M-229.1,246.9c-0.1-0.2-0.2-0.5-0.3-0.8l0.4-0.1c0.1,0.2,0.3,0.5,0.4,0.7
				L-229.1,246.9z M-230.4,249.6l0.4-0.2c0.2,0.3,0.4,0.7,0.6,1l-0.4,0.2C-230,250.4-230.2,250-230.4,249.6L-230.4,249.6z
				 M-229.3,244.8l0.5,0.1c-0.1,0.2-0.3,0.3-0.5,0.5l1.8,0.5l-0.1,0.4l-2-0.6c-0.3,0.3-0.7,0.5-1.1,0.7c-0.1-0.1-0.1-0.3-0.2-0.4
				C-230.3,245.7-229.8,245.3-229.3,244.8L-229.3,244.8z M-231.3,247.5l2.7,0.8l0.2-0.6l-2.3-0.6l0.1-0.4l2.3,0.6l0.1-0.5l0.5,0.1
				l-0.1,0.5l2.4,0.7l-0.1,0.4l-2.4-0.7l-0.2,0.6l2.8,0.8l-0.1,0.4l-6.1-1.7L-231.3,247.5z M-231.3,248.6l3.8,1.1l0.1-0.5l0.5,0.1
				l-0.1,0.5l1.3,0.4l-0.1,0.4l-1.3-0.4l-0.2,0.8c-0.1,0.5-0.5,0.7-1,0.6c-0.3-0.1-0.6-0.2-0.9-0.3c0-0.2,0-0.3,0.1-0.5
				c0.3,0.1,0.6,0.2,0.9,0.3c0.3,0.1,0.5,0,0.5-0.2l0.2-0.8l-3.8-1.1L-231.3,248.6z"/>
			<path id="Fill-5" d="M-222.9,248.9l1.8,0.5l0.2-0.9l-1.6-0.4l0.1-0.4l1.6,0.4l0.2-0.9l0.5,0.1l-0.2,0.9l1.6,0.4l-0.1,0.4
				l-1.6-0.4l-0.2,0.9l1.8,0.5l-0.1,0.4l-4.2-1.1L-222.9,248.9z M-223,251.2l0.4-0.2c0.2,0.4,0.4,0.8,0.5,1.1l-0.5,0.2
				C-222.7,251.9-222.9,251.5-223,251.2L-223,251.2z M-223.2,250.1l2.7,0.8l0.2-0.6l0.5,0.1l-0.2,0.6l1,0.3l-0.1,0.4l-1-0.3
				l-0.4,1.4c-0.1,0.5-0.5,0.7-1,0.5c-0.2-0.1-0.6-0.2-1-0.3c0-0.2,0-0.3,0-0.5c0.3,0.1,0.7,0.2,0.9,0.3c0.3,0.1,0.4,0,0.5-0.3
				l0.3-1.3l-2.7-0.8L-223.2,250.1z M-224.7,247.9c0.7-0.3,1.4-0.7,2-1.3l0.4,0.4c-0.7,0.6-1.5,1.1-2.2,1.5
				C-224.6,248.3-224.6,248.1-224.7,247.9L-224.7,247.9z M-225.2,249.9c0.7-0.4,1.4-0.9,2-1.6l0.4,0.3c-0.3,0.3-0.5,0.5-0.8,0.7
				l-0.9,3.4l-0.5-0.1l0.7-2.7c-0.3,0.2-0.6,0.4-0.9,0.6C-225.1,250.2-225.2,250.1-225.2,249.9L-225.2,249.9z"/>
			<path id="Fill-7" d="M-214.2,251.9l-2.7-0.7c0.1,0.8,0.4,1.5,0.8,2.1C-215.3,252.9-214.6,252.5-214.2,251.9L-214.2,251.9z
				 M-218.1,248.8l2.8,0.8l0.2-0.9l0.5,0.1l-0.2,0.9l2.7,0.7l-0.1,0.5l-2.7-0.7l-0.2,0.9l1.7,0.5l-0.1,0.4c-0.6,0.7-1.3,1.3-2.1,1.6
				c0.6,0.5,1.4,1,2.4,1.5c-0.2,0.2-0.4,0.3-0.5,0.4c-1.1-0.6-1.9-1.1-2.4-1.7c-0.8,0.2-1.8,0.3-3,0.3c0-0.2-0.1-0.4-0.1-0.6
				c1.2,0.1,2.1,0,2.9-0.2c-0.5-0.7-0.7-1.5-0.8-2.4l-0.6-0.2l0.1-0.5l2.2,0.6l0.2-0.9l-2.8-0.8L-218.1,248.8z"/>
			<path id="Fill-9" d="M-210.2,253.1l0.5-0.1c0.2,0.4,0.3,1,0.5,1.7l-0.5,0.2C-209.9,254.2-210.1,253.6-210.2,253.1L-210.2,253.1z
				 M-210.2,251.6l2.8,0.8l0.4-1.4l0.5,0.1l-0.4,1.4l0.9,0.2l-0.1,0.5l-0.9-0.2l-0.9,3.1c-0.2,0.6-0.6,0.9-1.1,0.7
				c-0.2,0-0.5-0.1-0.9-0.3c0-0.2,0-0.4,0.1-0.6c0.4,0.1,0.7,0.2,0.9,0.3c0.2,0.1,0.3,0.1,0.4,0c0.1-0.1,0.2-0.2,0.2-0.5l0.8-3
				l-2.8-0.8L-210.2,251.6z M-212.4,252.6c0.8-0.6,1.5-1.5,2.2-2.6l0.5,0.3c-0.3,0.4-0.6,0.8-0.9,1.1l-1.2,4.6l-0.5-0.1l1-3.6
				c-0.3,0.3-0.7,0.6-1,0.9C-212.4,253-212.4,252.8-212.4,252.6L-212.4,252.6z"/>
		</g>
	</g>
</g>
</svg>
